<svg width="15" height="15" viewBox="0 0 15 15" fill="none" xmlns="http://www.w3.org/2000/svg">
<path d="M14.1156 2.15312C14.466 1.80277 14.466 1.23473 14.1156 0.884375V0.884375C13.7653 0.534019 13.1972 0.534019 12.8469 0.884375L7.5 6.23125L2.15312 0.884375C1.80277 0.534019 1.23473 0.534019 0.884375 0.884375V0.884375C0.534019 1.23473 0.534019 1.80277 0.884375 2.15312L6.23125 7.5L0.884375 12.8469C0.534019 13.1972 0.534019 13.7653 0.884375 14.1156V14.1156C1.23473 14.466 1.80277 14.466 2.15312 14.1156L7.5 8.76875L12.8469 14.1156C13.1972 14.466 13.7653 14.466 14.1156 14.1156V14.1156C14.466 13.7653 14.466 13.1972 14.1156 12.8469L8.76875 7.5L14.1156 2.15312Z" fill="black"/>
</svg>
