<svg width="15" height="15" viewBox="0 0 15 15" fill="none" xmlns="http://www.w3.org/2000/svg">
<path d="M7.5 0C3.37793 0 0 3.37793 0 7.5C0 11.6221 3.37793 15 7.5 15C11.6221 15 15 11.6221 15 7.5C15 3.37793 11.6221 0 7.5 0Z" fill="#77DD00"/>
<path d="M15 7.5C15 11.6221 11.6221 15 7.5 15V0C11.6221 0 15 3.37793 15 7.5Z" fill="#66BB00"/>
<path d="M12.0439 5.95313L7.50003 10.084L6.59473 10.9102L3.30762 7.62305L4.5469 6.38376L6.64752 8.48438L7.50003 7.71094L10.8663 4.65234L12.0439 5.95313Z" fill="#E7E7E7"/>
<path d="M12.0439 5.95312L7.5 10.084V7.71093L10.8662 4.65234L12.0439 5.95312Z" fill="#D3D3D8"/>
</svg>
