<svg width="20" height="39" viewBox="0 0 20 39" fill="none" xmlns="http://www.w3.org/2000/svg">
<path d="M16.4563 38.4583C16.0517 38.4597 15.652 38.3704 15.2864 38.197C14.9208 38.0236 14.5988 37.7705 14.3438 37.4562L1.2626 21.2063C0.864251 20.7216 0.646484 20.1138 0.646484 19.4865C0.646484 18.8591 0.864251 18.2513 1.2626 17.7667L14.8043 1.51667C15.264 0.963582 15.9246 0.615765 16.6407 0.549737C17.3569 0.483709 18.0699 0.704876 18.623 1.16458C19.1761 1.62429 19.5239 2.28489 19.5899 3.00104C19.656 3.7172 19.4348 4.43025 18.9751 4.98333L6.86885 19.5L18.5688 34.0167C18.9 34.4142 19.1104 34.8983 19.1751 35.4117C19.2398 35.925 19.156 36.4462 18.9338 36.9134C18.7116 37.3807 18.3601 37.7745 17.9211 38.0483C17.482 38.3221 16.9737 38.4644 16.4563 38.4583Z" fill="white"/>
</svg>
