<svg width="20" height="39" viewBox="0 0 20 39" fill="none" xmlns="http://www.w3.org/2000/svg">
<path d="M3.54365 0.54166C3.94826 0.540283 4.34804 0.629581 4.71361 0.802994C5.07918 0.976406 5.40125 1.22952 5.65615 1.54374L18.7374 17.7937C19.1357 18.2784 19.3535 18.8862 19.3535 19.5135C19.3535 20.1409 19.1357 20.7487 18.7374 21.2333L5.19573 37.4833C4.73603 38.0364 4.07543 38.3842 3.35928 38.4503C2.64313 38.5163 1.93007 38.2951 1.37699 37.8354C0.823898 37.3757 0.476084 36.7151 0.410055 35.999C0.344027 35.2828 0.565193 34.5697 1.0249 34.0167L13.1312 19.5L1.43115 4.98332C1.09997 4.58578 0.889593 4.10169 0.824921 3.58833C0.760246 3.07497 0.843979 2.55382 1.06621 2.08656C1.28845 1.6193 1.63988 1.22548 2.07893 0.951691C2.51798 0.677902 3.02627 0.535614 3.54365 0.54166Z" fill="white"/>
</svg>
