<svg width="20" height="39" viewBox="0 0 20 39" fill="none" xmlns="http://www.w3.org/2000/svg">
<path d="M16.4561 38.4584C16.0515 38.4598 15.6517 38.3705 15.2861 38.1971C14.9206 38.0236 14.5985 37.7705 14.3436 37.4563L1.26235 21.2063C0.864007 20.7217 0.64624 20.1138 0.64624 19.4865C0.64624 18.8592 0.864007 18.2513 1.26235 17.7667L14.804 1.51672C15.2637 0.963635 15.9243 0.615819 16.6405 0.54979C17.3566 0.483762 18.0697 0.70493 18.6228 1.16464C19.1759 1.62435 19.5237 2.28494 19.5897 3.00109C19.6557 3.71725 19.4346 4.4303 18.9749 4.98339L6.8686 19.5001L18.5686 34.0167C18.8998 34.4143 19.1102 34.8984 19.1748 35.4117C19.2395 35.9251 19.1558 36.4462 18.9335 36.9135C18.7113 37.3807 18.3599 37.7746 17.9208 38.0484C17.4818 38.3221 16.9735 38.4644 16.4561 38.4584Z" fill="#2C5183"/>
</svg>
