<svg width="20" height="39" viewBox="0 0 20 39" fill="none" xmlns="http://www.w3.org/2000/svg">
<path d="M3.5439 0.541615C3.94851 0.540237 4.34828 0.629536 4.71385 0.802948C5.07942 0.97636 5.40149 1.22948 5.6564 1.5437L18.7376 17.7937C19.136 18.2783 19.3538 18.8862 19.3538 19.5135C19.3538 20.1408 19.136 20.7487 18.7376 21.2333L5.19598 37.4833C4.73627 38.0364 4.07568 38.3842 3.35952 38.4502C2.64337 38.5162 1.93032 38.2951 1.37723 37.8354C0.824142 37.3757 0.476328 36.7151 0.410299 35.9989C0.344271 35.2828 0.565437 34.5697 1.02514 34.0166L13.1314 19.4999L1.4314 4.98328C1.10021 4.58574 0.889837 4.10165 0.825165 3.58829C0.76049 3.07492 0.844223 2.55378 1.06646 2.08651C1.28869 1.61925 1.64013 1.22543 2.07918 0.951645C2.51822 0.677856 3.02651 0.535568 3.5439 0.541615Z" fill="#2C5183"/>
</svg>
