<svg width="26" height="22" viewBox="0 0 26 22" fill="none" xmlns="http://www.w3.org/2000/svg">
<path d="M5.12891 0.0820312H3.60547C2.76407 0.0820312 2.08203 0.764074 2.08203 1.60547H6.65234C6.65234 0.764074 5.9703 0.0820312 5.12891 0.0820312Z" fill="black"/>
<path d="M23.207 3.12891H18.1194L17.6246 1.64457C17.313 0.709941 16.4418 0.0820312 15.4566 0.0820312H10.5434C9.55825 0.0820312 8.687 0.709941 8.37545 1.64457L7.88064 3.12891H2.79297C1.25293 3.12891 0 4.38183 0 5.92188V19.125C0 20.665 1.25293 21.918 2.79297 21.918H23.207C24.7471 21.918 26 20.665 26 19.125V5.92188C26 4.38183 24.7471 3.12891 23.207 3.12891ZM2.58984 5.92188C2.58984 5.5012 2.93089 5.16016 3.35156 5.16016H4.875C5.29567 5.16016 5.63672 5.5012 5.63672 5.92188C5.63672 6.34255 5.29567 6.68359 4.875 6.68359H3.35156C2.93089 6.68359 2.58984 6.34255 2.58984 5.92188ZM13 19.3789C8.93989 19.3789 5.63672 16.0757 5.63672 12.0156C5.63672 7.95551 8.93989 4.65234 13 4.65234C17.0601 4.65234 20.3633 7.95551 20.3633 12.0156C20.3633 16.0757 17.0601 19.3789 13 19.3789ZM22.1406 6.68359C21.72 6.68359 21.3789 6.34255 21.3789 5.92188C21.3789 5.5012 21.72 5.16016 22.1406 5.16016C22.5613 5.16016 22.9023 5.5012 22.9023 5.92188C22.9023 6.34255 22.5613 6.68359 22.1406 6.68359Z" fill="black"/>
<path d="M13 6.17578C9.77991 6.17578 7.16016 8.79554 7.16016 12.0156C7.16016 15.2357 9.77991 17.8555 13 17.8555C16.2201 17.8555 18.8398 15.2357 18.8398 12.0156C18.8398 8.79554 16.2201 6.17578 13 6.17578ZM13 16.0781C10.7599 16.0781 8.9375 14.2557 8.9375 12.0156C8.9375 9.77556 10.7599 7.95312 13 7.95312C15.2401 7.95312 17.0625 9.77556 17.0625 12.0156C17.0625 14.2557 15.2401 16.0781 13 16.0781Z" fill="black"/>
<path d="M13 14.5547C14.4023 14.5547 15.5391 13.4179 15.5391 12.0156C15.5391 10.6133 14.4023 9.47656 13 9.47656C11.5977 9.47656 10.4609 10.6133 10.4609 12.0156C10.4609 13.4179 11.5977 14.5547 13 14.5547Z" fill="black"/>
</svg>
