<svg width="89" height="89" viewBox="0 0 89 89" fill="none" xmlns="http://www.w3.org/2000/svg">
<path d="M16.3174 48.8457H27.2242C27.3791 48.8419 27.5313 48.8044 27.6702 48.736C27.8092 48.6675 27.9316 48.5697 28.029 48.4492C28.1264 48.3288 28.1964 48.1886 28.2343 48.0384C28.2722 47.8882 28.2769 47.7316 28.2483 47.5794L26.276 37.3624C26.2307 37.1231 26.104 36.9069 25.9174 36.7504C25.7307 36.5939 25.4957 36.5068 25.2521 36.5039H16.3174C14.6808 36.5039 13.1112 37.1541 11.9539 38.3113C10.7966 39.4686 10.1465 41.0382 10.1465 42.6748C10.1465 44.3114 10.7966 45.881 11.9539 47.0383C13.1112 48.1956 14.6808 48.8457 16.3174 48.8457ZM16.3174 38.5898H24.3914L25.9605 46.7598H16.3174C15.234 46.7598 14.195 46.3294 13.4289 45.5633C12.6628 44.7972 12.2324 43.7582 12.2324 42.6748C12.2324 41.5914 12.6628 40.5524 13.4289 39.7863C14.195 39.0202 15.234 38.5898 16.3174 38.5898Z" fill="black"/>
<path d="M25.9709 17.5566H43.659C43.9356 17.5566 44.2009 17.4468 44.3965 17.2512C44.5921 17.0556 44.702 16.7903 44.702 16.5137C44.702 16.2371 44.5921 15.9718 44.3965 15.7762C44.2009 15.5806 43.9356 15.4707 43.659 15.4707H25.9709C25.6943 15.4707 25.4291 15.5806 25.2335 15.7762C25.0379 15.9718 24.928 16.2371 24.928 16.5137C24.928 16.7903 25.0379 17.0556 25.2335 17.2512C25.4291 17.4468 25.6943 17.5566 25.9709 17.5566Z" fill="black"/>
<path d="M22.7234 15.4707H21.8743C21.5977 15.4707 21.3324 15.5806 21.1368 15.7762C20.9412 15.9718 20.8313 16.2371 20.8313 16.5137C20.8313 16.7903 20.9412 17.0556 21.1368 17.2512C21.3324 17.4468 21.5977 17.5566 21.8743 17.5566H22.7234C23 17.5566 23.2653 17.4468 23.4609 17.2512C23.6565 17.0556 23.7664 16.7903 23.7664 16.5137C23.7664 16.2371 23.6565 15.9718 23.4609 15.7762C23.2653 15.5806 23 15.4707 22.7234 15.4707Z" fill="black"/>
<path d="M86.3952 36.5992L78.7906 35.2941C78.2349 33.4665 77.5033 31.6972 76.6061 30.0109L81.0689 23.6877C81.2107 23.487 81.2771 23.2427 81.2563 22.9978C81.2356 22.7529 81.129 22.5232 80.9554 22.3493L72.0528 13.4195C71.8787 13.2448 71.6482 13.1375 71.4025 13.1167C71.1567 13.0958 70.9114 13.1627 70.7103 13.3055L64.4033 17.7842C62.7354 16.9411 61.0208 16.4659 59.217 15.9656L59.1403 15.9444L57.8444 8.68202C57.8014 8.44092 57.6749 8.22265 57.4871 8.06546C57.2993 7.90826 57.0622 7.82217 56.8173 7.82227H50.4102C50.1335 7.82227 49.8683 7.93215 49.6727 8.12774C49.4771 8.32334 49.3672 8.58862 49.3672 8.86523V10.6035H23.4897C21.9617 10.611 20.4726 11.0865 19.223 11.9661C17.9734 12.8456 17.0233 14.0869 16.5006 15.5229L10.5468 31.8679C8.73306 31.9746 7.02814 32.7686 5.77918 34.0882C4.53022 35.4078 3.83112 37.1538 3.82422 38.9707V54.9297H3.57582C3.33569 54.9276 3.09752 54.9731 2.87501 55.0634C2.6525 55.1537 2.45004 55.2871 2.27927 55.4559C2.1085 55.6247 1.97279 55.8257 1.87995 56.0471C1.78711 56.2686 1.73896 56.5062 1.73828 56.7464V63.8359C1.73758 64.3266 1.92989 64.7979 2.2737 65.148C2.61751 65.4981 3.08521 65.6989 3.57582 65.707H4.69336L4.75194 73.9772C4.75456 74.4988 4.8621 75.0144 5.06816 75.4935C5.27422 75.9726 5.57458 76.4054 5.95136 76.766C6.32595 77.1279 6.76837 77.4121 7.2532 77.6024C7.73802 77.7928 8.25567 77.8854 8.77641 77.875H8.807L16.8872 77.8623C17.4149 77.8636 17.9376 77.76 18.4249 77.5575C18.9122 77.355 19.3543 77.0577 19.7257 76.6827C20.0975 76.3123 20.3915 75.8712 20.5904 75.3855C20.7893 74.8998 20.8891 74.3792 20.8839 73.8544L20.8263 65.707H49.3672V80.1348C49.3672 80.4114 49.4771 80.6767 49.6727 80.8723C49.8683 81.0678 50.1335 81.1777 50.4102 81.1777H56.8173C57.0642 81.1777 57.303 81.0901 57.4914 80.9305C57.6798 80.7709 57.8054 80.5497 57.846 80.3062L59.1497 72.4829C60.9749 71.8952 62.7384 71.1308 64.415 70.2003L70.7147 74.6284C70.9159 74.7697 71.1605 74.8353 71.4054 74.8137C71.6503 74.7922 71.8797 74.6848 72.0531 74.5106L80.9563 65.5565C81.1292 65.3826 81.2353 65.1534 81.256 64.9091C81.2767 64.6647 81.2106 64.4209 81.0694 64.2205L76.6073 57.8848C77.5043 56.1961 78.2356 54.4244 78.7909 52.5947L86.396 51.2838C86.6383 51.242 86.858 51.116 87.0164 50.928C87.1748 50.7399 87.2617 50.502 87.2617 50.2561V37.6272C87.2617 37.3812 87.1748 37.143 87.0162 36.9549C86.8576 36.7668 86.6377 36.6408 86.3952 36.5992ZM18.2398 75.2476C18.0612 75.4289 17.8484 75.5729 17.6137 75.6714C17.379 75.7699 17.1271 75.8208 16.8726 75.8212L8.7924 75.8734C8.28065 75.8766 7.78828 75.6778 7.4223 75.3201C7.05632 74.9624 6.8463 74.4747 6.83788 73.963L6.7793 65.707H18.7401L18.7978 73.8797C18.8003 74.1334 18.7523 74.385 18.6565 74.6198C18.5607 74.8547 18.419 75.0681 18.2398 75.2476ZM49.3672 63.6211H3.82422V57.0156H49.3672V63.6211ZM49.3672 54.9297H30.9087L33.5226 51.4531H49.3672V54.9297ZM49.3672 37.5469H33.9512C33.6746 37.5469 33.4093 37.6568 33.2138 37.8524C33.0182 38.0479 32.9083 38.3132 32.9083 38.5898C32.9083 38.8665 33.0182 39.1317 33.2138 39.3273C33.4093 39.5229 33.6746 39.6328 33.9512 39.6328H49.3672V41.3711H33.9512C33.6746 41.3711 33.4093 41.481 33.2138 41.6766C33.0182 41.8722 32.9083 42.1375 32.9083 42.4141C32.9083 42.6907 33.0182 42.956 33.2138 43.1516C33.4093 43.3471 33.6746 43.457 33.9512 43.457H49.3672V44.8477H33.9512C33.6746 44.8477 33.4093 44.9575 33.2138 45.1531C33.0182 45.3487 32.9083 45.614 32.9083 45.8906C32.9083 46.1672 33.0182 46.4325 33.2138 46.6281C33.4093 46.8237 33.6746 46.9336 33.9512 46.9336H49.3672V49.3672H33.0047C32.8427 49.3703 32.6835 49.4106 32.5395 49.4849C32.3955 49.5592 32.2705 49.6656 32.174 49.7958L28.2902 54.9297H5.91016V38.9707C5.91964 37.6297 6.45583 36.3461 7.4031 35.3969C8.35036 34.4476 9.63279 33.9088 10.9738 33.8965H49.3672V37.5469ZM49.3672 31.8105H12.7938L18.4605 16.2065C18.8379 15.1759 19.5225 14.2859 20.4219 13.6569C21.3214 13.0279 22.3922 12.6902 23.4897 12.6895H49.3672V31.8105ZM51.4531 33.4729C54.0771 33.699 56.5208 34.9011 58.3013 36.8417C60.0819 38.7823 61.0698 41.3202 61.0698 43.9539C61.0698 46.5876 60.0819 49.1255 58.3013 51.0661C56.5208 53.0067 54.0771 54.2088 51.4531 54.435V33.4729ZM51.4531 56.5272C54.6318 56.2988 57.6059 54.8749 59.7771 52.5421C61.9483 50.2093 63.1553 47.1408 63.1553 43.9539C63.1553 40.7671 61.9483 37.6985 59.7771 35.3657C57.6059 33.0329 54.6318 31.6091 51.4531 31.3807V23.5994C62.1834 24.0608 70.8944 33.0134 70.8944 43.9547C70.8944 54.896 62.1834 63.8471 51.4531 64.3084V56.5272ZM85.1758 49.3778L77.7945 50.6499C77.6 50.6834 77.419 50.7714 77.2725 50.9037C77.1261 51.036 77.0202 51.2072 76.9671 51.3973C76.379 53.5054 75.5411 55.5356 74.4713 57.4448C74.3749 57.6165 74.3292 57.8119 74.3392 58.0085C74.3493 58.2051 74.4148 58.3948 74.5281 58.5557L78.8611 64.7065L71.1953 72.4165L65.0812 68.1184C64.92 68.005 64.7299 67.9396 64.533 67.9299C64.3361 67.9201 64.1404 67.9664 63.9688 68.0633C61.8108 69.2813 59.841 70.1318 57.9468 70.6646C57.7562 70.7182 57.5847 70.825 57.4525 70.9724C57.3203 71.1199 57.2328 71.3019 57.2002 71.4972L55.9337 79.0918H51.4531V66.3959C63.3941 65.936 72.9803 56.0465 72.9803 43.9538C72.9803 31.8611 63.3941 21.9719 51.4531 21.5119V9.9082H55.944L57.2016 16.9562C57.236 17.1492 57.3242 17.3286 57.4559 17.4738C57.5876 17.6191 57.7576 17.7242 57.9463 17.7772C58.1854 17.8443 58.4229 17.9105 58.659 17.9757C60.5501 18.5 62.3363 18.9952 63.9679 19.9162C64.1403 20.0135 64.3368 20.0597 64.5345 20.0495C64.7323 20.0392 64.923 19.9729 65.0844 19.8583L71.1986 15.5176L78.8594 23.2008L74.5276 29.3384C74.4139 29.4994 74.3481 29.6894 74.3379 29.8863C74.3278 30.0832 74.3737 30.279 74.4702 30.4509C75.5401 32.358 76.3783 34.3862 76.9671 36.4923C77.0202 36.6825 77.1263 36.8537 77.2729 36.9861C77.4195 37.1184 77.6007 37.2063 77.7954 37.2397L85.1758 38.5064V49.3778Z" fill="black"/>
</svg>
