<svg width="89" height="89" viewBox="0 0 89 89" fill="none" xmlns="http://www.w3.org/2000/svg">
<path d="M86.2188 5.38867H81.9187C81.6325 5.39758 81.3605 5.51536 81.1583 5.71797C80.956 5.92058 80.8386 6.19274 80.8302 6.47892V7.50938C78.9181 8.85585 77.7013 8.85967 75.7892 7.52467V6.47823C75.7865 6.19485 75.6747 5.92341 75.4769 5.72045C75.2791 5.51748 75.0106 5.39864 74.7274 5.38867H63.669C63.3826 5.39751 63.1103 5.5152 62.9077 5.71776C62.705 5.92032 62.5872 6.19253 62.5782 6.47892V6.87716C61.4218 6.98529 60.2579 6.98441 59.1017 6.87455V6.47892C59.1066 6.19884 59.0017 5.92795 58.8094 5.7242C58.6172 5.52046 58.3528 5.40003 58.0729 5.38867H53.7505C53.4652 5.39788 53.1942 5.516 52.9933 5.71876C52.7923 5.92152 52.6767 6.19353 52.67 6.47892V15.3685C52.67 15.9444 53.1741 16.3398 53.7505 16.3398H58.0729C58.2052 16.3476 58.3377 16.3282 58.4622 16.2828C58.5867 16.2375 58.7006 16.1672 58.797 16.0762C58.8933 15.9852 58.97 15.8755 59.0224 15.7538C59.0748 15.6321 59.1018 15.501 59.1017 15.3685V14.943C60.2579 14.8331 61.4218 14.8322 62.5782 14.9404V15.3685C62.5782 15.9444 63.0931 16.3398 63.669 16.3398H64.1691C64.1946 16.5137 64.2212 16.4593 64.2527 16.4977L65.3506 17.8405C65.9137 18.5294 66.2235 19.3905 66.2286 20.2802V35.1133H47.6751L47.6688 28.323C47.6655 25.8856 48.418 23.507 49.8227 21.5151C51.0606 19.7858 51.6755 17.6878 51.5671 15.5639C51.4639 13.6892 50.8151 11.8856 49.7004 10.3748C48.5857 8.86403 47.0537 7.71199 45.2929 7.06038C45.1353 7.00276 44.9661 6.98403 44.7997 7.00577C44.6333 7.02751 44.4746 7.08909 44.3371 7.18526C44.1996 7.28144 44.0873 7.40939 44.0098 7.55823C43.9323 7.70708 43.8918 7.87243 43.8919 8.04025L43.8934 14.6212H40.2712L40.2696 8.03086C40.2696 7.86348 40.2293 7.69857 40.1521 7.55005C40.0749 7.40154 39.9631 7.27378 39.8261 7.17759C39.6891 7.08139 39.531 7.01957 39.3651 6.99735C39.1992 6.97514 39.0304 6.99318 38.8729 7.04995C37.5108 7.55185 36.2813 8.3581 35.278 9.40724C34.2748 10.4564 33.5243 11.7207 33.0837 13.1039C32.6432 14.4871 32.5243 15.9525 32.736 17.3886C32.9477 18.8248 33.4845 20.1936 34.3054 21.3908C35.7263 23.4168 36.4927 25.8293 36.5017 28.3039L36.5078 35.1133H30.9415V32.6142C30.9577 32.1841 30.8297 31.761 30.5777 31.4122C30.3257 31.0634 29.9642 30.8089 29.5509 30.6892V21.623C29.5493 20.9353 29.2859 20.2739 28.8142 19.7734C28.3425 19.273 27.6979 18.9709 27.0114 18.9287L20.3622 7.3877C20.225 7.14963 20.0275 6.95194 19.7895 6.81455C19.5516 6.67716 19.2817 6.60493 19.0069 6.60514C18.7322 6.60535 18.4623 6.678 18.2246 6.81575C17.9869 6.95351 17.7897 7.15151 17.6529 7.38978L11.03 18.9274C10.3462 18.9708 9.70483 19.2742 9.23765 19.7755C8.77046 20.2767 8.51284 20.9378 8.51768 21.623V30.6892C7.64854 30.9372 6.95323 31.7073 6.95323 32.6142V35.1133H6.4081C5.26284 35.1163 4.15877 35.5408 3.30656 36.3059C2.45434 37.071 1.91363 38.1231 1.7876 39.2614C1.66157 40.3997 1.95903 41.5445 2.62324 42.4775C3.28745 43.4105 4.27191 44.0663 5.38877 44.3197V75.568C5.38877 79.9769 8.93487 83.6113 13.3433 83.6113H71.6124C76.0214 83.6113 79.6134 79.9769 79.6134 75.568V44.3197C80.7291 44.06 81.7101 43.3987 82.3695 42.462C83.0289 41.5253 83.3205 40.3787 83.1888 39.2408C83.057 38.1028 82.5111 37.0532 81.6551 36.292C80.799 35.5308 79.6928 35.1112 78.5473 35.1133H72.6602V20.2802C72.6691 19.3948 72.9827 18.5396 73.5483 17.8584L74.6457 16.5335C74.6814 16.4948 74.7145 16.4538 74.7448 16.4108C75.0206 16.4079 75.2844 16.2971 75.4796 16.1022C75.6748 15.9072 75.7859 15.6436 75.7892 15.3678V14.2921C77.7013 12.9591 78.9181 12.9639 80.8302 14.312V15.1637C80.8423 15.4407 80.9636 15.7017 81.1676 15.8895C81.3716 16.0773 81.6416 16.1767 81.9187 16.166H86.2188C86.3536 16.1707 86.488 16.1482 86.614 16.1C86.7399 16.0518 86.855 15.9788 86.9522 15.8854C87.0495 15.7919 87.127 15.6799 87.1802 15.5559C87.2333 15.432 87.2611 15.2986 87.2618 15.1637V6.47892C87.2635 6.19736 87.1556 5.92617 86.961 5.7227C86.7663 5.51924 86.5002 5.39945 86.2188 5.38867ZM57.0157 7.67955V14.2539H54.756V7.47461H57.0157V7.67955ZM62.5782 12.8596C61.4219 12.7515 60.258 12.7515 59.1017 12.8596V8.95841C59.6794 9.01436 60.2595 9.04128 60.8399 9.03906C61.4204 9.04103 62.0005 9.01388 62.5782 8.95771V12.8596ZM36.0202 20.2037C35.1673 18.9672 34.7136 17.4992 34.72 15.9971C34.7185 14.7394 35.0354 13.5019 35.6411 12.3997C36.2468 11.2976 37.1216 10.3666 38.1841 9.6937L38.1854 15.6638C38.1854 15.9404 38.2953 16.2057 38.4909 16.4013C38.6865 16.5969 38.9518 16.7068 39.2284 16.7068L44.9366 16.708C45.2132 16.708 45.4785 16.5981 45.6741 16.4025C45.8697 16.2069 45.9795 15.9417 45.9795 15.665L45.9776 9.70848C46.9951 10.3476 47.8445 11.2215 48.4543 12.2568C49.0642 13.292 49.4169 14.4585 49.4827 15.6583C49.5684 17.3152 49.0899 18.9522 48.1253 20.3021C46.4684 22.6488 45.58 25.4516 45.5824 28.3242L45.5891 35.1133H44.6093L44.6039 26.1264C44.6034 25.4674 44.3414 24.8355 43.8754 24.3694C43.4095 23.9034 42.7777 23.6413 42.1187 23.6406C41.7921 23.6402 41.4686 23.7042 41.1669 23.8289C40.8651 23.9537 40.5909 24.1367 40.3599 24.3677C40.129 24.5986 39.946 24.8728 39.8212 25.1746C39.6964 25.4764 39.6325 25.7998 39.6329 26.1264L39.6383 35.1133H38.5953L38.5892 28.303C38.5803 25.4042 37.6838 22.5777 36.0202 20.2037ZM42.5233 35.1133H41.7237L41.7188 26.1236C41.7187 26.0705 41.729 26.0179 41.7493 25.9688C41.7696 25.9197 41.7993 25.8752 41.8369 25.8376C41.8738 25.8004 41.9177 25.7709 41.9661 25.7507C42.0145 25.7306 42.0664 25.7203 42.1188 25.7203C42.2253 25.7209 42.3272 25.7637 42.4021 25.8393C42.477 25.9149 42.519 26.0171 42.5186 26.1236L42.5233 35.1133ZM28.8556 32.6898V35.1133H22.4239V32.6487L28.8556 32.6898ZM23.2329 28.5078H27.4649V30.5938L23.8441 30.5703C23.7606 29.8527 23.5539 29.155 23.2329 28.5078ZM19.9903 11.031L24.5978 18.9473H19.9903V11.031ZM26.8475 21.0332C26.927 21.0305 27.0062 21.0437 27.0806 21.072C27.1549 21.1003 27.2228 21.1432 27.2803 21.1982C27.3378 21.2531 27.3838 21.319 27.4155 21.392C27.4472 21.4649 27.464 21.5435 27.4649 21.623V26.4219H16.8176C16.4638 26.422 16.1134 26.3524 15.7865 26.2171C15.4595 26.0818 15.1625 25.8834 14.9122 25.6333C14.6619 25.3832 14.4634 25.0863 14.3278 24.7594C14.1923 24.4326 14.1225 24.0822 14.1224 23.7284C14.1223 23.3746 14.1919 23.0242 14.3272 22.6973C14.4625 22.3703 14.6608 22.0732 14.911 21.823C15.1611 21.5727 15.458 21.3741 15.7849 21.2386C16.1117 21.1031 16.4621 21.0333 16.8159 21.0332H26.8475ZM17.0054 31.1674C16.795 30.9487 16.5368 30.7817 16.2511 30.6794C16.5717 28.7383 17.511 28.5078 18.6077 28.5078H19.3951C20.4983 28.5078 21.4312 28.7317 21.7524 30.6793C21.4613 30.7775 21.1946 30.9368 20.9702 31.1467C20.7765 31.3311 20.621 31.552 20.5126 31.7965C20.4043 32.0411 20.3453 32.3047 20.3389 32.5721V35.1133H17.5567V32.5721C17.5634 32.0498 17.3655 31.5457 17.0054 31.1674ZM17.9044 11.031V18.9473H13.4162L17.9044 11.031ZM10.6036 21.623C10.5984 21.5465 10.6091 21.4697 10.6352 21.3976C10.6613 21.3255 10.7021 21.2596 10.755 21.2041C10.8079 21.1486 10.8718 21.1048 10.9427 21.0754C11.0135 21.0459 11.0896 21.0316 11.1663 21.0332H12.8651C12.3066 21.8196 12.0124 22.7631 12.0248 23.7275C12.026 24.6756 12.3083 25.6019 12.8361 26.3894C13.3639 27.1769 14.1135 27.7901 14.99 28.1515C14.6051 28.7425 14.3449 29.5292 14.1973 30.5745L10.6036 30.5946V21.623ZM9.03916 32.6898L15.4708 32.6487V35.1133H9.03916V32.6898ZM77.5274 75.568C77.5262 77.1403 76.904 78.6484 75.7962 79.7642C74.6883 80.8799 73.1847 81.5129 71.6124 81.5254H13.3433C10.0844 81.5254 7.47471 78.8269 7.47471 75.568V44.5H77.5274V75.568ZM78.5473 37.1992C79.2388 37.1992 79.902 37.4739 80.391 37.9629C80.88 38.4519 81.1547 39.1151 81.1547 39.8066C81.1547 40.4982 80.88 41.1614 80.391 41.6504C79.902 42.1394 79.2388 42.4141 78.5473 42.4141H6.40862C5.71709 42.4141 5.05388 42.1394 4.5649 41.6504C4.07591 41.1614 3.8012 40.4982 3.8012 39.8066C3.8012 39.1151 4.07591 38.4519 4.5649 37.9629C5.05388 37.4739 5.71709 37.1992 6.40862 37.1992H78.5473ZM66.9639 16.5003L66.8499 16.3398H72.0597L71.9354 16.5001C71.0636 17.5679 70.5834 18.9018 70.5743 20.2802V35.1133H68.3145V20.2802C68.3092 18.9029 67.8326 17.569 66.9639 16.5003ZM73.7032 14.2539H64.6642V7.47461H73.7032V14.2539ZM80.8302 11.8947C79.0919 10.9995 77.5274 10.9879 75.7892 11.858V9.96035C76.5479 10.3692 77.3933 10.5908 78.2551 10.6068C79.1559 10.593 80.0398 10.3597 80.8302 9.92715V11.8947ZM85.1759 14.0801H82.9161V7.47461H85.1759V14.0801Z" fill="black"/>
<path d="M35.374 73.9405C36.3605 73.9405 37.307 73.5505 38.0071 72.8555C38.7072 72.1605 39.1041 71.2169 39.1113 70.2305V54.0591C39.1113 53.0679 38.7176 52.1173 38.0167 51.4164C37.3158 50.7155 36.3652 50.3218 35.374 50.3218C34.3828 50.3218 33.4322 50.7155 32.7314 51.4164C32.0305 52.1173 31.6367 53.0679 31.6367 54.0591V70.2305C31.6439 71.2169 32.0409 72.1605 32.741 72.8555C33.4411 73.5505 34.3875 73.9405 35.374 73.9405ZM33.7227 54.0591C33.7227 53.6211 33.8966 53.2011 34.2063 52.8914C34.516 52.5817 34.9361 52.4077 35.374 52.4077C35.812 52.4077 36.232 52.5817 36.5417 52.8914C36.8514 53.2011 37.0254 53.6211 37.0254 54.0591V70.2305C37.0254 70.6685 36.8514 71.0885 36.5417 71.3982C36.232 71.7079 35.812 71.8819 35.374 71.8819C34.9361 71.8819 34.516 71.7079 34.2063 71.3982C33.8966 71.0885 33.7227 70.6685 33.7227 70.2305V54.0591Z" fill="black"/>
<path d="M21.1201 73.9405C22.1066 73.9405 23.0531 73.5505 23.7532 72.8555C24.4533 72.1605 24.8502 71.2169 24.8574 70.2305V54.0591C24.8574 53.0679 24.4637 52.1173 23.7628 51.4164C23.0619 50.7155 22.1113 50.3218 21.1201 50.3218C20.1289 50.3218 19.1783 50.7155 18.4774 51.4164C17.7766 52.1173 17.3828 53.0679 17.3828 54.0591V70.2305C17.39 71.2169 17.7869 72.1605 18.487 72.8555C19.1871 73.5505 20.1336 73.9405 21.1201 73.9405ZM19.4688 54.0591C19.4688 53.6211 19.6427 53.2011 19.9524 52.8914C20.2621 52.5817 20.6821 52.4077 21.1201 52.4077C21.5581 52.4077 21.9781 52.5817 22.2878 52.8914C22.5975 53.2011 22.7715 53.6211 22.7715 54.0591V70.2305C22.7715 70.6685 22.5975 71.0885 22.2878 71.3982C21.9781 71.7079 21.5581 71.8819 21.1201 71.8819C20.6821 71.8819 20.2621 71.7079 19.9524 71.3982C19.6427 71.0885 19.4688 70.6685 19.4688 70.2305V54.0591Z" fill="black"/>
<path d="M49.6279 73.9405C50.6144 73.9405 51.5609 73.5505 52.261 72.8555C52.9611 72.1605 53.358 71.2169 53.3652 70.2305V54.0591C53.3652 53.0679 52.9715 52.1173 52.2706 51.4164C51.5697 50.7155 50.6191 50.3218 49.6279 50.3218C48.6367 50.3218 47.6861 50.7155 46.9853 51.4164C46.2844 52.1173 45.8906 53.0679 45.8906 54.0591V70.2305C45.8978 71.2169 46.2948 72.1605 46.9949 72.8555C47.695 73.5505 48.6414 73.9405 49.6279 73.9405ZM47.9766 54.0591C47.9766 53.6211 48.1505 53.2011 48.4602 52.8914C48.7699 52.5817 49.19 52.4077 49.6279 52.4077C50.0659 52.4077 50.4859 52.5817 50.7956 52.8914C51.1053 53.2011 51.2793 53.6211 51.2793 54.0591V70.2305C51.2793 70.6685 51.1053 71.0885 50.7956 71.3982C50.4859 71.7079 50.0659 71.8819 49.6279 71.8819C49.19 71.8819 48.7699 71.7079 48.4602 71.3982C48.1505 71.0885 47.9766 70.6685 47.9766 70.2305V54.0591Z" fill="black"/>
<path d="M63.795 73.9405C64.2789 73.9388 64.7577 73.8412 65.2037 73.6534C65.6497 73.4656 66.0541 73.1914 66.3935 72.8464C66.7329 72.5015 67.0006 72.0927 67.1812 71.6437C67.3617 71.1947 67.4515 70.7144 67.4454 70.2305V54.0591C67.4454 53.0909 67.0608 52.1624 66.3762 51.4779C65.6916 50.7933 64.7631 50.4087 63.795 50.4087C62.8268 50.4087 61.8983 50.7933 61.2138 51.4779C60.5292 52.1624 60.1446 53.0909 60.1446 54.0591V70.2305C60.1384 70.7144 60.2282 71.1947 60.4088 71.6437C60.5893 72.0927 60.857 72.5015 61.1964 72.8464C61.5358 73.1914 61.9402 73.4656 62.3862 73.6534C62.8322 73.8412 63.311 73.9388 63.795 73.9405ZM62.2305 54.0591C62.2228 53.8488 62.2576 53.6392 62.3328 53.4427C62.4079 53.2462 62.5219 53.0668 62.668 52.9154C62.814 52.7639 62.9891 52.6434 63.1827 52.5611C63.3763 52.4789 63.5846 52.4365 63.795 52.4365C64.0054 52.4365 64.2136 52.4789 64.4072 52.5611C64.6009 52.6434 64.7759 52.7639 64.922 52.9154C65.068 53.0668 65.182 53.2462 65.2572 53.4427C65.3323 53.6392 65.3671 53.8488 65.3594 54.0591V70.2305C65.3671 70.4407 65.3323 70.6504 65.2572 70.8469C65.182 71.0434 65.068 71.2227 64.922 71.3742C64.7759 71.5257 64.6009 71.6461 64.4072 71.7284C64.2136 71.8107 64.0054 71.8531 63.795 71.8531C63.5846 71.8531 63.3763 71.8107 63.1827 71.7284C62.9891 71.6461 62.814 71.5257 62.668 71.3742C62.5219 71.2227 62.4079 71.0434 62.3328 70.8469C62.2576 70.6504 62.2228 70.4407 62.2305 70.2305V54.0591Z" fill="black"/>
<path d="M10.7773 69.88C11.054 69.88 11.3192 69.7701 11.5148 69.5745C11.7104 69.3789 11.8203 69.1136 11.8203 68.837V51.1489C11.8203 50.8723 11.7104 50.607 11.5148 50.4114C11.3192 50.2158 11.054 50.106 10.7773 50.106C10.5007 50.106 10.2354 50.2158 10.0399 50.4114C9.84426 50.607 9.73438 50.8723 9.73438 51.1489V68.837C9.73438 69.1136 9.84426 69.3789 10.0399 69.5745C10.2354 69.7701 10.5007 69.88 10.7773 69.88Z" fill="black"/>
<path d="M10.7773 48.9442C11.054 48.9442 11.3192 48.8343 11.5148 48.6387C11.7104 48.4431 11.8203 48.1778 11.8203 47.9012V47.0522C11.8203 46.7756 11.7104 46.5103 11.5148 46.3148C11.3192 46.1192 11.054 46.0093 10.7773 46.0093C10.5007 46.0093 10.2354 46.1192 10.0399 46.3148C9.84426 46.5103 9.73438 46.7756 9.73438 47.0522V47.9012C9.73438 48.1778 9.84426 48.4431 10.0399 48.6387C10.2354 48.8343 10.5007 48.9442 10.7773 48.9442Z" fill="black"/>
</svg>
