<svg width="89" height="89" viewBox="0 0 89 89" fill="none" xmlns="http://www.w3.org/2000/svg">
<path d="M13.9062 76.4844C14.6743 76.4844 15.2969 75.8618 15.2969 75.0938C15.2969 74.3257 14.6743 73.7031 13.9062 73.7031C13.1382 73.7031 12.5156 74.3257 12.5156 75.0938C12.5156 75.8618 13.1382 76.4844 13.9062 76.4844Z" fill="black"/>
<path d="M69.5312 76.4844C70.2993 76.4844 70.9219 75.8618 70.9219 75.0938C70.9219 74.3257 70.2993 73.7031 69.5312 73.7031C68.7632 73.7031 68.1406 74.3257 68.1406 75.0938C68.1406 75.8618 68.7632 76.4844 69.5312 76.4844Z" fill="black"/>
<path d="M86.2188 12.5156H71.6172C70.3268 12.5171 69.0896 13.0303 68.1771 13.9428C67.2647 14.8552 66.7514 16.0924 66.75 17.3828V62.5781H63.8992C63.9454 62.3492 63.9687 62.1163 63.9688 61.8828V38.2422C63.9678 37.3204 63.6013 36.4367 62.9495 35.7849C62.2977 35.1331 61.4139 34.7665 60.4922 34.7656H49.993C50.0392 34.5367 50.0624 34.3038 50.0625 34.0703V10.4297C50.0616 9.50793 49.695 8.62419 49.0432 7.9724C48.3914 7.32062 47.5077 6.95405 46.5859 6.95312H22.9453C22.0236 6.95405 21.1398 7.32062 20.488 7.9724C19.8362 8.62419 19.4697 9.50793 19.4688 10.4297V34.0703C19.4688 34.3038 19.4921 34.5367 19.5383 34.7656H9.03906C8.1173 34.7665 7.23356 35.1331 6.58178 35.7849C5.93 36.4367 5.56342 37.3204 5.5625 38.2422V61.8828C5.56256 62.1163 5.58585 62.3492 5.63203 62.5781H2.78125C2.41243 62.5781 2.05872 62.7246 1.79793 62.9854C1.53714 63.2462 1.39063 63.5999 1.39062 63.9687V69.5312C1.39063 69.9001 1.53714 70.2538 1.79793 70.5146C2.05872 70.7754 2.41243 70.9219 2.78125 70.9219H8.34723C7.5713 71.9546 7.09842 73.1831 6.98161 74.4696C6.8648 75.7561 7.10868 77.0497 7.68589 78.2053C8.26311 79.361 9.15084 80.3329 10.2495 81.0123C11.3482 81.6917 12.6145 82.0515 13.9062 82.0515C15.198 82.0515 16.4643 81.6917 17.563 81.0123C18.6617 80.3329 19.5494 79.361 20.1266 78.2053C20.7038 77.0497 20.9477 75.7561 20.8309 74.4696C20.7141 73.1831 20.2412 71.9546 19.4653 70.9219H63.9722C63.1963 71.9546 62.7234 73.1831 62.6066 74.4696C62.4898 75.7561 62.7337 77.0497 63.3109 78.2053C63.8881 79.361 64.7758 80.3329 65.8745 81.0123C66.9733 81.6917 68.2395 82.0515 69.5312 82.0515C70.823 82.0515 72.0892 81.6917 73.188 81.0123C74.2867 80.3329 75.1744 79.361 75.7516 78.2053C76.3288 77.0497 76.5727 75.7561 76.4559 74.4696C76.3391 73.1831 75.8662 71.9546 75.0903 70.9219H80.6562C81.0251 70.9219 81.3788 70.7754 81.6396 70.5146C81.9004 70.2538 82.0469 69.9001 82.0469 69.5312V63.9687C82.0469 63.5999 81.9004 63.2462 81.6396 62.9854C81.3788 62.7246 81.0251 62.5781 80.6562 62.5781H75.0938V21.5547C75.0938 21.3703 75.167 21.1934 75.2974 21.063C75.4278 20.9326 75.6047 20.8594 75.7891 20.8594H86.2188C86.5876 20.8594 86.9413 20.7129 87.2021 20.4521C87.4629 20.1913 87.6094 19.8376 87.6094 19.4687V13.9062C87.6094 13.5374 87.4629 13.1837 87.2021 12.9229C86.9413 12.6621 86.5876 12.5156 86.2188 12.5156ZM54.2344 51.4531C54.4171 51.4535 54.5981 51.4178 54.767 51.3481C54.9359 51.2783 55.0894 51.1759 55.2186 51.0467C55.3478 50.9175 55.4502 50.764 55.5199 50.5951C55.5897 50.4262 55.6254 50.2452 55.625 50.0625V37.5469H60.4922C60.6766 37.5469 60.8535 37.6201 60.9838 37.7505C61.1142 37.8809 61.1875 38.0578 61.1875 38.2422V61.8828C61.1875 62.0672 61.1142 62.2441 60.9838 62.3745C60.8535 62.5049 60.6766 62.5781 60.4922 62.5781H36.8516C36.6672 62.5781 36.4903 62.5049 36.3599 62.3745C36.2295 62.2441 36.1562 62.0672 36.1562 61.8828V38.2422C36.1562 38.0578 36.2295 37.8809 36.3599 37.7505C36.4903 37.6201 36.6672 37.5469 36.8516 37.5469H41.7188V50.0625C41.7186 50.2997 41.7791 50.5329 41.8945 50.7401C42.0099 50.9473 42.1763 51.1216 42.378 51.2463C42.5798 51.371 42.81 51.4421 43.047 51.4527C43.2839 51.4634 43.5196 51.4132 43.7317 51.3071L48.6719 48.8353L53.6121 51.3071C53.8055 51.403 54.0185 51.453 54.2344 51.4531ZM52.8438 37.5469V47.8132L49.2942 46.0366C49.1008 45.9406 48.8878 45.8906 48.6719 45.8906C48.456 45.8906 48.243 45.9406 48.0496 46.0366L44.5 47.8132V37.5469H52.8438ZM30.5938 9.73437H38.9375V20.0007L35.3879 18.2241C35.1945 18.1281 34.9815 18.0781 34.7656 18.0781C34.5497 18.0781 34.3367 18.1281 34.1433 18.2241L30.5938 20.0007V9.73437ZM22.25 10.4297C22.25 10.2453 22.3233 10.0684 22.4537 9.93803C22.584 9.80763 22.7609 9.73437 22.9453 9.73437H27.8125V22.25C27.8123 22.4872 27.8728 22.7204 27.9882 22.9276C28.1036 23.1348 28.2701 23.3091 28.4718 23.4338C28.6735 23.5585 28.9038 23.6296 29.1407 23.6402C29.3776 23.6509 29.6133 23.6007 29.8254 23.4946L34.7656 21.0228L39.7058 23.4946C39.9179 23.6007 40.1536 23.6509 40.3905 23.6402C40.6275 23.6296 40.8577 23.5585 41.0595 23.4338C41.2612 23.3091 41.4276 23.1348 41.543 22.9276C41.6584 22.7204 41.7189 22.4872 41.7188 22.25V9.73437H46.5859C46.7703 9.73437 46.9472 9.80763 47.0776 9.93803C47.208 10.0684 47.2812 10.2453 47.2812 10.4297V34.0703C47.2812 34.2547 47.208 34.4316 47.0776 34.562C46.9472 34.6924 46.7703 34.7656 46.5859 34.7656H22.9453C22.7609 34.7656 22.584 34.6924 22.4537 34.562C22.3233 34.4316 22.25 34.2547 22.25 34.0703V10.4297ZM16.6875 37.5469H25.0312V47.8132L21.4817 46.0366C21.2883 45.9406 21.0753 45.8906 20.8594 45.8906C20.6435 45.8906 20.4305 45.9406 20.2371 46.0366L16.6875 47.8132V37.5469ZM8.34375 38.2422C8.34375 38.0578 8.41701 37.8809 8.5474 37.7505C8.6778 37.6201 8.85465 37.5469 9.03906 37.5469H13.9062V50.0625C13.9061 50.2997 13.9666 50.5329 14.082 50.7401C14.1974 50.9473 14.3638 51.1216 14.5655 51.2463C14.7673 51.371 14.9975 51.4421 15.2345 51.4527C15.4714 51.4634 15.7071 51.4132 15.9192 51.3071L20.8594 48.8353L25.7996 51.3071C26.0117 51.4132 26.2474 51.4634 26.4843 51.4527C26.7212 51.4421 26.9515 51.371 27.1532 51.2463C27.3549 51.1216 27.5214 50.9473 27.6368 50.7401C27.7522 50.5329 27.8127 50.2997 27.8125 50.0625V37.5469H32.6797C32.8641 37.5469 33.041 37.6201 33.1713 37.7505C33.3017 37.8809 33.375 38.0578 33.375 38.2422V61.8828C33.375 62.0672 33.3017 62.2441 33.1713 62.3745C33.041 62.5049 32.8641 62.5781 32.6797 62.5781H9.03906C8.85465 62.5781 8.6778 62.5049 8.5474 62.3745C8.41701 62.2441 8.34375 62.0672 8.34375 61.8828V38.2422ZM13.9062 79.2656C13.0811 79.2656 12.2745 79.0209 11.5885 78.5625C10.9024 78.1041 10.3677 77.4526 10.0519 76.6902C9.73618 75.9279 9.65356 75.0891 9.81454 74.2799C9.97551 73.4706 10.3728 72.7272 10.9563 72.1438C11.5397 71.5603 12.2831 71.163 13.0924 71.002C13.9016 70.8411 14.7404 70.9237 15.5028 71.2394C16.2651 71.5552 16.9166 72.0899 17.375 72.776C17.8334 73.462 18.0781 74.2686 18.0781 75.0937C18.0767 76.1997 17.6366 77.26 16.8546 78.0421C16.0725 78.8241 15.0122 79.2641 13.9062 79.2656ZM69.5312 79.2656C68.7061 79.2656 67.8995 79.0209 67.2135 78.5625C66.5274 78.1041 65.9927 77.4526 65.6769 76.6902C65.3612 75.9279 65.2786 75.0891 65.4395 74.2799C65.6005 73.4706 65.9978 72.7272 66.5813 72.1438C67.1647 71.5603 67.9081 71.163 68.7174 71.002C69.5266 70.8411 70.3654 70.9237 71.1278 71.2394C71.8901 71.5552 72.5416 72.0899 73 72.776C73.4585 73.462 73.7031 74.2686 73.7031 75.0937C73.7017 76.1997 73.2616 77.26 72.4796 78.0421C71.6975 78.8241 70.6372 79.2641 69.5312 79.2656ZM79.2656 65.3594V68.1406H4.17188V65.3594H79.2656ZM84.8281 18.0781H75.7891C74.8673 18.079 73.9836 18.4456 73.3318 19.0974C72.68 19.7492 72.3134 20.6329 72.3125 21.5547V62.5781H69.5312V17.3828C69.5317 16.8297 69.7516 16.2994 70.1427 15.9083C70.5338 15.5173 71.0641 15.2973 71.6172 15.2969H84.8281V18.0781Z" fill="black"/>
</svg>
